<svg xmlns="http://www.w3.org/2000/svg" viewBox="0 0 110 160">
  <defs>
    <style>
      .cls-1{fill:#fffef1;}.cls-2{fill:#ffc602;}.cls-3{opacity:0.5;}.cls-4{fill:#fe602d;}
    </style>
  </defs>
  <g id="aplicacion_color" data-name="aplicacion color">
    <path class="cls-1" d="M110.53,47.67a153.7,153.7,0,0,1-3,32h-14L90.92,57.51,68.85,55.74v91.87l17.86,2.63-.17,9H25.41l-1-5.62c2.56-1.63,8.51-4.28,17.86-7.9V55.76L20,57.52,17.36,79.65h-14a153.05,153.05,0,0,1-3-32l.17-6.27H110.36Z"/>
    <g id="graph_curvo" data-name="graph curvo">
      <path id="yellow" class="cls-2" d="M0,33.31H110.91V0C81,23.27,41.65,28.8,0,30.93Z"/>
      <g id="medio" class="cls-3">
        <path class="cls-4" d="M110.91,0C89.25,24.59,44,33.31,44,33.31h66.94V0Z"/>
      </g>
      <g id="orange">
        <path class="cls-4" d="M72.15,33.31h38.76V0C94.72,25,72.15,33.31,72.15,33.31Z"/>
      </g>
    </g>
  </g>
</svg>
